<svg xmlns="http://www.w3.org/2000/svg" width="418" height="77" viewBox="0 0 418 77">
  <metadata><?xpacket begin="﻿" id="W5M0MpCehiHzreSzNTczkc9d"?>
<x:xmpmeta xmlns:x="adobe:ns:meta/" x:xmptk="Adobe XMP Core 5.6-c138 79.159824, 2016/09/14-01:09:01        ">
   <rdf:RDF xmlns:rdf="http://www.w3.org/1999/02/22-rdf-syntax-ns#">
      <rdf:Description rdf:about=""/>
   </rdf:RDF>
</x:xmpmeta>
                                                                                                    
                                                                                                    
                                                                                                    
                                                                                                    
                                                                                                    
                                                                                                    
                                                                                                    
                                                                                                    
                                                                                                    
                                                                                                    
                                                                                                    
                                                                                                    
                                                                                                    
                                                                                                    
                                                                                                    
                                                                                                    
                                                                                                    
                                                                                                    
                                                                                                    
                                                                                                    
                           
<?xpacket end="w"?></metadata>
<defs>
    <style>
      .cls-1 {
        fill: #036;
        fill-opacity: 0;
        stroke: #fff;
        stroke-linejoin: round;
        stroke-width: 2px;
        fill-rule: evenodd;
      }
    </style>
  </defs>
  <path id="Ce_facem" data-name="Ce facem" class="cls-1" d="M399.773,304.112a13.431,13.431,0,0,1-5.6-4.834,22.312,22.312,0,0,1-3.12-8.108,59.092,59.092,0,0,1-.967-11.382,75.886,75.886,0,0,1,.791-11.58,28.3,28.3,0,0,1,2.571-8.547,12.878,12.878,0,0,1,4.724-5.273,13.561,13.561,0,0,1,7.207-1.8,8.662,8.662,0,0,1,7.756,4.043,12.083,12.083,0,0,1,1.648,4.021,20.918,20.918,0,0,1,.484,4.46,17.883,17.883,0,0,0,4.834-.593,10.835,10.835,0,0,0,3.537-1.648,7.054,7.054,0,0,0,2.154-2.483,6.744,6.744,0,0,0,.725-3.1,7.269,7.269,0,0,0-1.275-4.109,10.654,10.654,0,0,0-3.823-3.318,23.283,23.283,0,0,0-6.394-2.219,44.116,44.116,0,0,0-9.031-.813,34.924,34.924,0,0,0-13.469,2.417,26.355,26.355,0,0,0-9.712,6.768,28.8,28.8,0,0,0-5.867,10.415,42.912,42.912,0,0,0-1.977,13.359,44.7,44.7,0,0,0,1.933,13.535,28.412,28.412,0,0,0,5.8,10.459,25.676,25.676,0,0,0,9.712,6.724,36.171,36.171,0,0,0,13.667,2.373,34.963,34.963,0,0,0,9.668-1.143,19.909,19.909,0,0,0,6.284-2.9,10.68,10.68,0,0,0,3.384-3.845,9.13,9.13,0,0,0,1.011-3.977,6.275,6.275,0,0,0-.418-2.242,3.542,3.542,0,0,0-1.12-1.626,32.126,32.126,0,0,1-2.659,3.033,18.244,18.244,0,0,1-3.538,2.768,19.515,19.515,0,0,1-4.592,2,20.472,20.472,0,0,1-5.867.769A19.984,19.984,0,0,1,399.773,304.112Zm60.706-34.651a7.327,7.327,0,0,1,2.2,2.9,17.233,17.233,0,0,1,1.253,4.615,43.232,43.232,0,0,1,.4,6.152H448.767q0.22-7.208,2.439-10.942t6-3.736A5.281,5.281,0,0,1,460.479,269.461Zm5.449,42.627a19.552,19.552,0,0,0,5.515-2.109,9.255,9.255,0,0,0,3.252-3.055,6.955,6.955,0,0,0,1.055-3.669,4.61,4.61,0,0,0-2.417-4.395,13.51,13.51,0,0,1-2,2.879,12.806,12.806,0,0,1-2.812,2.329,13.847,13.847,0,0,1-3.582,1.538,16.013,16.013,0,0,1-4.306.549,11.706,11.706,0,0,1-4.988-1.01,9.393,9.393,0,0,1-3.692-3.121,16.214,16.214,0,0,1-2.373-5.361,34.868,34.868,0,0,1-.988-7.778h29.487v-4.614a27.822,27.822,0,0,0-1.45-9.405,18.006,18.006,0,0,0-4.175-6.767,17.482,17.482,0,0,0-6.636-4.109,28.672,28.672,0,0,0-18.259.219,17.841,17.841,0,0,0-7.009,4.812,21.435,21.435,0,0,0-4.351,8,37.409,37.409,0,0,0-1.494,11.118,33.839,33.839,0,0,0,1.494,10.481,20.5,20.5,0,0,0,4.439,7.756,19.143,19.143,0,0,0,7.316,4.834,28.164,28.164,0,0,0,10.086,1.67A34.4,34.4,0,0,0,465.928,312.088ZM544.1,312v-4.79h-4.218a12.043,12.043,0,0,1-2.088-.2,5.478,5.478,0,0,1-2.065-.813,4.847,4.847,0,0,1-1.582-1.758,6.317,6.317,0,0,1-.637-3.076V269.9H545.9v-6.152H533.512v-4.922a48.817,48.817,0,0,1,.219-5.054,13.339,13.339,0,0,1,.725-3.361,4.194,4.194,0,0,1,1.3-1.89,3.055,3.055,0,0,1,1.889-.593,3.185,3.185,0,0,1,2.132.725,5.423,5.423,0,0,1,1.384,1.824,8.973,8.973,0,0,1,.747,2.373,14.079,14.079,0,0,1,.22,2.373q5.58,0,8.327-1.407a4.667,4.667,0,0,0,2.747-4.438,4.885,4.885,0,0,0-.725-2.593,6.052,6.052,0,0,0-2.439-2.087,16.008,16.008,0,0,0-4.614-1.406,43.319,43.319,0,0,0-7.251-.506,25.472,25.472,0,0,0-8.218,1.187,14.671,14.671,0,0,0-5.735,3.449,13.793,13.793,0,0,0-3.34,5.537,23.8,23.8,0,0,0-1.076,7.449v3.34h-8V269.9h8v31.465a6.316,6.316,0,0,1-.638,3.076,4.864,4.864,0,0,1-1.582,1.758,5.485,5.485,0,0,1-2.065.813,12.041,12.041,0,0,1-2.087.2h-1.978V312H544.1Zm21.624-17.71a7.669,7.669,0,0,1,1.582-3.12,7.347,7.347,0,0,1,2.944-2,14.392,14.392,0,0,1,4.526-.857l4.043-.263v6.767a17.789,17.789,0,0,1-.593,4.768,10.81,10.81,0,0,1-1.714,3.626,7.889,7.889,0,0,1-2.681,2.307,7.43,7.43,0,0,1-3.493.813,4.247,4.247,0,0,1-3.867-1.934,10.942,10.942,0,0,1-1.231-5.8A17.071,17.071,0,0,1,565.726,294.29Zm10.48-25.444a4.588,4.588,0,0,1,1.692,2.109,11.076,11.076,0,0,1,.747,3.252q0.175,1.89.176,4.131V283.3l-7.383.263q-10.107.309-15.139,3.824t-5.031,10.854a17.392,17.392,0,0,0,1.1,6.482,12.749,12.749,0,0,0,3.01,4.57,12.065,12.065,0,0,0,4.483,2.7,17.071,17.071,0,0,0,5.559.879,20.416,20.416,0,0,0,4.416-.418,11.544,11.544,0,0,0,3.362-1.3,13.668,13.668,0,0,0,2.813-2.219q1.319-1.341,2.812-3.142h0.791l1.89,6.2h16.743v-4.79h-0.352a9.151,9.151,0,0,1-2.548-.308,3.351,3.351,0,0,1-1.67-1.032,4.564,4.564,0,0,1-.9-1.956,13.862,13.862,0,0,1-.286-3.076V277.9a19.019,19.019,0,0,0-1.186-7.141,11.066,11.066,0,0,0-3.538-4.724,15.142,15.142,0,0,0-5.889-2.615,37.36,37.36,0,0,0-8.283-.813,48.357,48.357,0,0,0-7.185.506,23.562,23.562,0,0,0-5.889,1.6,10.623,10.623,0,0,0-4,2.856,6.355,6.355,0,0,0-1.472,4.219,4.742,4.742,0,0,0,3.054,4.658q3.054,1.364,9.119,1.363a24.55,24.55,0,0,1,.285-3.89,9.632,9.632,0,0,1,.989-3.076A5.715,5.715,0,0,1,576.206,268.846Zm58.6,43.132a18.489,18.489,0,0,0,5.427-2.329,9.817,9.817,0,0,0,3.142-3.186,6.928,6.928,0,0,0,1.011-3.472,5.452,5.452,0,0,0-.528-2.351,4.058,4.058,0,0,0-1.626-1.78,12.74,12.74,0,0,1-2.043,2.879,13.1,13.1,0,0,1-2.922,2.329,14.8,14.8,0,0,1-3.714,1.538,16.751,16.751,0,0,1-4.372.549q-5.67,0-8.174-4.526t-2.5-13.667a64.264,64.264,0,0,1,.593-9.58,21.7,21.7,0,0,1,1.714-6.109,7.473,7.473,0,0,1,2.681-3.23,6.7,6.7,0,0,1,3.537-.944,4.25,4.25,0,0,1,2.835.944,6.521,6.521,0,0,1,1.78,2.527,14.756,14.756,0,0,1,.944,3.692,32.985,32.985,0,0,1,.286,4.438,21.133,21.133,0,0,0,5.779-.659,10.075,10.075,0,0,0,3.559-1.714,5.625,5.625,0,0,0,1.8-2.439,8.2,8.2,0,0,0,.506-2.834,6.551,6.551,0,0,0-1.165-3.714,9.874,9.874,0,0,0-3.406-3.01,19.819,19.819,0,0,0-5.581-2,36.452,36.452,0,0,0-7.69-.726,29.253,29.253,0,0,0-8.7,1.253,16.9,16.9,0,0,0-7.01,4.2,20.091,20.091,0,0,0-4.658,7.822,37.564,37.564,0,0,0-1.692,12.173,36.227,36.227,0,0,0,1.626,11.645,19.7,19.7,0,0,0,4.57,7.691,16.872,16.872,0,0,0,7.054,4.218,30.51,30.51,0,0,0,9.074,1.275A30.141,30.141,0,0,0,634.808,311.978ZM677.7,269.461a7.327,7.327,0,0,1,2.2,2.9,17.2,17.2,0,0,1,1.253,4.615,43.085,43.085,0,0,1,.395,6.152H665.989q0.219-7.208,2.439-10.942t6-3.736A5.281,5.281,0,0,1,677.7,269.461Zm5.449,42.627a19.552,19.552,0,0,0,5.515-2.109,9.255,9.255,0,0,0,3.252-3.055,6.946,6.946,0,0,0,1.055-3.669,4.61,4.61,0,0,0-2.417-4.395,13.542,13.542,0,0,1-2,2.879,12.812,12.812,0,0,1-2.813,2.329,13.855,13.855,0,0,1-3.581,1.538,16.026,16.026,0,0,1-4.307.549,11.709,11.709,0,0,1-4.988-1.01,9.384,9.384,0,0,1-3.691-3.121,16.173,16.173,0,0,1-2.373-5.361,34.8,34.8,0,0,1-.989-7.778H695.3v-4.614a27.822,27.822,0,0,0-1.45-9.405,18.006,18.006,0,0,0-4.175-6.767,17.475,17.475,0,0,0-6.636-4.109,28.672,28.672,0,0,0-18.259.219,17.849,17.849,0,0,0-7.009,4.812,21.435,21.435,0,0,0-4.351,8,37.409,37.409,0,0,0-1.494,11.118,33.839,33.839,0,0,0,1.494,10.481,20.517,20.517,0,0,0,4.439,7.756,19.139,19.139,0,0,0,7.317,4.834,28.158,28.158,0,0,0,10.085,1.67A34.4,34.4,0,0,0,683.149,312.088ZM757.3,312v-4.79h-0.264a14.311,14.311,0,0,1-2.681-.22,3.893,3.893,0,0,1-1.889-.879,3.991,3.991,0,0,1-1.121-1.911,12.17,12.17,0,0,1-.373-3.362v-17.71a26.883,26.883,0,0,1,.439-4.944,14.121,14.121,0,0,1,1.384-4.109,7.82,7.82,0,0,1,2.439-2.79,6.186,6.186,0,0,1,3.6-1.033,5.712,5.712,0,0,1,5.559,3.164q1.6,3.163,1.6,8.965V312h20v-4.79h-0.264a14.023,14.023,0,0,1-2.636-.22,3.892,3.892,0,0,1-1.89-.879,3.991,3.991,0,0,1-1.121-1.911,12.17,12.17,0,0,1-.373-3.362V279.964a26.768,26.768,0,0,0-1.011-7.844,14.073,14.073,0,0,0-2.922-5.384,11.57,11.57,0,0,0-4.68-3.12,18.133,18.133,0,0,0-6.241-1.011,37.727,37.727,0,0,0-4.109.22,13.2,13.2,0,0,0-3.823,1.011,12.087,12.087,0,0,0-3.428,2.285,15.387,15.387,0,0,0-2.966,4.043h-0.791a10.724,10.724,0,0,0-5.141-5.779,18.614,18.614,0,0,0-8.482-1.78,35.342,35.342,0,0,0-4.021.22,11.833,11.833,0,0,0-3.625,1.011,11.427,11.427,0,0,0-3.23,2.285,16.694,16.694,0,0,0-2.879,4.043h-0.439l-1.187-6.416h-18.9v4.526h0.263a16.4,16.4,0,0,1,2.681.2,4.664,4.664,0,0,1,2.044.835,4.041,4.041,0,0,1,1.318,1.78,8.264,8.264,0,0,1,.461,3.032v26.895a8.365,8.365,0,0,1-.527,3.252,4.3,4.3,0,0,1-1.472,1.889,5.22,5.22,0,0,1-2.219.857,18.414,18.414,0,0,1-2.813.2H701.4V312h27.642v-4.79h-0.264a16.789,16.789,0,0,1-2.7-.2,4.5,4.5,0,0,1-2.044-.835,4.092,4.092,0,0,1-1.3-1.78,8.233,8.233,0,0,1-.462-3.032V284.183a34.192,34.192,0,0,1,.4-5.3,16.261,16.261,0,0,1,1.3-4.438,8.1,8.1,0,0,1,2.395-3.054,5.968,5.968,0,0,1,3.736-1.143,6.526,6.526,0,0,1,3.361.813,6.1,6.1,0,0,1,2.242,2.351,11.732,11.732,0,0,1,1.23,3.8,31.972,31.972,0,0,1,.374,5.164V312h20Z" transform="translate(-371 -239)"/>
</svg>
