<svg xmlns="http://www.w3.org/2000/svg" width="586" height="77" viewBox="0 0 586 77">
  <metadata><?xpacket begin="﻿" id="W5M0MpCehiHzreSzNTczkc9d"?>
<x:xmpmeta xmlns:x="adobe:ns:meta/" x:xmptk="Adobe XMP Core 5.6-c138 79.159824, 2016/09/14-01:09:01        ">
   <rdf:RDF xmlns:rdf="http://www.w3.org/1999/02/22-rdf-syntax-ns#">
      <rdf:Description rdf:about=""/>
   </rdf:RDF>
</x:xmpmeta>
                                                                                                    
                                                                                                    
                                                                                                    
                                                                                                    
                                                                                                    
                                                                                                    
                                                                                                    
                                                                                                    
                                                                                                    
                                                                                                    
                                                                                                    
                                                                                                    
                                                                                                    
                                                                                                    
                                                                                                    
                                                                                                    
                                                                                                    
                                                                                                    
                                                                                                    
                                                                                                    
                           
<?xpacket end="w"?></metadata>
<defs>
    <style>
      .cls-1 {
        fill: #036;
        fill-opacity: 0;
        stroke: #fff;
        stroke-linejoin: round;
        stroke-width: 2px;
        fill-rule: evenodd;
      }
    </style>
  </defs>
  <path id="Cine_Suntem" data-name="Cine Suntem" class="cls-1" d="M399.773,304.112a13.431,13.431,0,0,1-5.6-4.834,22.312,22.312,0,0,1-3.12-8.108,59.092,59.092,0,0,1-.967-11.382,75.886,75.886,0,0,1,.791-11.58,28.3,28.3,0,0,1,2.571-8.547,12.878,12.878,0,0,1,4.724-5.273,13.561,13.561,0,0,1,7.207-1.8,8.662,8.662,0,0,1,7.756,4.043,12.083,12.083,0,0,1,1.648,4.021,20.918,20.918,0,0,1,.484,4.46,17.883,17.883,0,0,0,4.834-.593,10.835,10.835,0,0,0,3.537-1.648,7.054,7.054,0,0,0,2.154-2.483,6.744,6.744,0,0,0,.725-3.1,7.269,7.269,0,0,0-1.275-4.109,10.654,10.654,0,0,0-3.823-3.318,23.283,23.283,0,0,0-6.394-2.219,44.116,44.116,0,0,0-9.031-.813,34.924,34.924,0,0,0-13.469,2.417,26.355,26.355,0,0,0-9.712,6.768,28.8,28.8,0,0,0-5.867,10.415,42.912,42.912,0,0,0-1.977,13.359,44.7,44.7,0,0,0,1.933,13.535,28.412,28.412,0,0,0,5.8,10.459,25.676,25.676,0,0,0,9.712,6.724,36.171,36.171,0,0,0,13.667,2.373,34.963,34.963,0,0,0,9.668-1.143,19.909,19.909,0,0,0,6.284-2.9,10.68,10.68,0,0,0,3.384-3.845,9.13,9.13,0,0,0,1.011-3.977,6.275,6.275,0,0,0-.418-2.242,3.542,3.542,0,0,0-1.12-1.626,32.126,32.126,0,0,1-2.659,3.033,18.244,18.244,0,0,1-3.538,2.768,19.515,19.515,0,0,1-4.592,2,20.472,20.472,0,0,1-5.867.769A19.984,19.984,0,0,1,399.773,304.112ZM440.3,252.059a5.51,5.51,0,0,0,1.626,2.021,7.175,7.175,0,0,0,2.417,1.187,11.415,11.415,0,0,0,5.954,0,7.4,7.4,0,0,0,2.461-1.187,5.846,5.846,0,0,0,1.692-2.021,6.225,6.225,0,0,0,.637-2.9,6.327,6.327,0,0,0-.637-2.944,5.648,5.648,0,0,0-1.692-2,7.328,7.328,0,0,0-2.461-1.142,12.034,12.034,0,0,0-5.954,0,7.1,7.1,0,0,0-2.417,1.142,5.328,5.328,0,0,0-1.626,2,6.716,6.716,0,0,0-.593,2.944A6.606,6.606,0,0,0,440.3,252.059Zm-6.79,55.151V312h28.609v-4.79h-1.055a12.4,12.4,0,0,1-2.109-.2,5.487,5.487,0,0,1-2.088-.813,4.864,4.864,0,0,1-1.582-1.758,6.317,6.317,0,0,1-.637-3.076V263.748H433.509v4.79h1.055a13.546,13.546,0,0,1,2.087.176,5.611,5.611,0,0,1,2.088.769,4.751,4.751,0,0,1,1.6,1.67,5.634,5.634,0,0,1,.637,2.878v27.334a6.329,6.329,0,0,1-.637,3.076,4.873,4.873,0,0,1-1.582,1.758,5.5,5.5,0,0,1-2.066.813,12.258,12.258,0,0,1-2.131.2h-1.055ZM524.632,312v-4.79h-0.264a14.292,14.292,0,0,1-2.68-.22,3.892,3.892,0,0,1-1.89-.879,3.991,3.991,0,0,1-1.121-1.911,12.17,12.17,0,0,1-.373-3.362V279.964a26.768,26.768,0,0,0-1.011-7.844,14.073,14.073,0,0,0-2.922-5.384,11.57,11.57,0,0,0-4.68-3.12,18.133,18.133,0,0,0-6.241-1.011,35.355,35.355,0,0,0-4.021.22,11.833,11.833,0,0,0-3.625,1.011,11.441,11.441,0,0,0-3.23,2.285,16.694,16.694,0,0,0-2.879,4.043h-0.439l-1.187-6.416h-18.9v4.79h0.264a16.392,16.392,0,0,1,2.68.2,4.652,4.652,0,0,1,2.044.835,4.034,4.034,0,0,1,1.318,1.78,8.24,8.24,0,0,1,.462,3.032v26.631a8.363,8.363,0,0,1-.528,3.252,4.287,4.287,0,0,1-1.472,1.889,5.215,5.215,0,0,1-2.219.857,18.4,18.4,0,0,1-2.813.2h-0.175V312h27.641v-4.79h-0.264a16.789,16.789,0,0,1-2.7-.2,4.509,4.509,0,0,1-2.044-.835,4.1,4.1,0,0,1-1.3-1.78,8.235,8.235,0,0,1-.461-3.032V284.183a34.194,34.194,0,0,1,.395-5.3,16.332,16.332,0,0,1,1.3-4.438,8.113,8.113,0,0,1,2.4-3.054,5.97,5.97,0,0,1,3.736-1.143,6.533,6.533,0,0,1,3.362.813,6.094,6.094,0,0,1,2.241,2.351,11.732,11.732,0,0,1,1.23,3.8,31.972,31.972,0,0,1,.374,5.164V312h19.995Zm31.341-42.539a7.327,7.327,0,0,1,2.2,2.9,17.2,17.2,0,0,1,1.252,4.615,43.075,43.075,0,0,1,.4,6.152H544.261q0.221-7.208,2.439-10.942t6-3.736A5.281,5.281,0,0,1,555.973,269.461Zm5.449,42.627a19.552,19.552,0,0,0,5.515-2.109,9.255,9.255,0,0,0,3.252-3.055,6.955,6.955,0,0,0,1.055-3.669,4.61,4.61,0,0,0-2.417-4.395,13.546,13.546,0,0,1-2,2.879,12.806,12.806,0,0,1-2.812,2.329,13.847,13.847,0,0,1-3.582,1.538,16.013,16.013,0,0,1-4.306.549,11.706,11.706,0,0,1-4.988-1.01,9.393,9.393,0,0,1-3.692-3.121,16.214,16.214,0,0,1-2.373-5.361,34.809,34.809,0,0,1-.988-7.778h29.487v-4.614a27.847,27.847,0,0,0-1.45-9.405,18.006,18.006,0,0,0-4.175-6.767,17.482,17.482,0,0,0-6.636-4.109,28.672,28.672,0,0,0-18.259.219,17.841,17.841,0,0,0-7.009,4.812,21.435,21.435,0,0,0-4.351,8,37.409,37.409,0,0,0-1.494,11.118,33.839,33.839,0,0,0,1.494,10.481,20.515,20.515,0,0,0,4.438,7.756,19.154,19.154,0,0,0,7.317,4.834,28.164,28.164,0,0,0,10.086,1.67A34.407,34.407,0,0,0,561.422,312.088Zm77.713-.659a23.66,23.66,0,0,0,7.712-4.043,17.583,17.583,0,0,0,4.922-6.219,18.417,18.417,0,0,0,1.714-7.976,18.078,18.078,0,0,0-.945-6,14.213,14.213,0,0,0-3.032-4.966,24.615,24.615,0,0,0-5.339-4.241,56.421,56.421,0,0,0-7.867-3.867,67.575,67.575,0,0,1-7.448-3.45,21.5,21.5,0,0,1-4.527-3.208,9,9,0,0,1-2.263-3.273,10.2,10.2,0,0,1-.615-3.56,8.637,8.637,0,0,1,.7-3.582,7.494,7.494,0,0,1,1.912-2.614,8,8,0,0,1,2.834-1.582,11.027,11.027,0,0,1,3.428-.528,7.714,7.714,0,0,1,4.416,1.231,9.991,9.991,0,0,1,2.967,3.1,13.633,13.633,0,0,1,1.648,4.043,18.068,18.068,0,0,1,.5,4.065,18.481,18.481,0,0,0,4.856-.571,10.563,10.563,0,0,0,3.472-1.583,6.592,6.592,0,0,0,2.065-2.373,6.487,6.487,0,0,0,.681-2.944,7.879,7.879,0,0,0-1.142-4.109,9.828,9.828,0,0,0-3.494-3.318,20.392,20.392,0,0,0-5.955-2.219,39.393,39.393,0,0,0-8.569-.813,29.084,29.084,0,0,0-8.789,1.275A21.113,21.113,0,0,0,616,251.751a17.067,17.067,0,0,0-4.615,5.713,16.477,16.477,0,0,0-1.67,7.471A20.439,20.439,0,0,0,610.57,271a14.862,14.862,0,0,0,2.835,5.142,22.019,22.019,0,0,0,5.207,4.416,51.806,51.806,0,0,0,7.932,3.977q3.78,1.582,6.614,2.966a24.566,24.566,0,0,1,4.7,2.9,10.547,10.547,0,0,1,2.791,3.3,8.705,8.705,0,0,1,.923,4.065,9.835,9.835,0,0,1-.747,3.845,8.7,8.7,0,0,1-2.2,3.1,10.416,10.416,0,0,1-3.515,2.066,13.779,13.779,0,0,1-4.7.747,12.212,12.212,0,0,1-4.944-.989,10.428,10.428,0,0,1-3.889-2.945,14.214,14.214,0,0,1-2.549-4.877,22.6,22.6,0,0,1-.923-6.79,16.219,16.219,0,0,0-3.8.439,9.372,9.372,0,0,0-3.252,1.451,7.5,7.5,0,0,0-2.285,2.592,8.124,8.124,0,0,0-.857,3.912,10.376,10.376,0,0,0,4.5,8.481,20.038,20.038,0,0,0,6.482,2.944,37.8,37.8,0,0,0,10.107,1.143A32.976,32.976,0,0,0,639.135,311.429ZM714.466,312v-4.79h-0.747a17.434,17.434,0,0,1-2.417-.154,4.145,4.145,0,0,1-1.889-.725,3.8,3.8,0,0,1-1.253-1.692,8.379,8.379,0,0,1-.461-3.1V263.748H687.264v4.79h0.264a19.593,19.593,0,0,1,2.5.154,4.716,4.716,0,0,1,2.065.747,4.1,4.1,0,0,1,1.407,1.736,7.589,7.589,0,0,1,.527,3.12v17.27a31.8,31.8,0,0,1-.462,5.691,14.022,14.022,0,0,1-1.45,4.307,7.163,7.163,0,0,1-2.549,2.725,7.031,7.031,0,0,1-3.713.944,5.715,5.715,0,0,1-3.3-.9,6.307,6.307,0,0,1-2.109-2.549,13.586,13.586,0,0,1-1.121-3.977,37.537,37.537,0,0,1-.329-5.23V263.748h-20v4.79h0.175a12.8,12.8,0,0,1,2.791.264,4.018,4.018,0,0,1,1.911.967,4.16,4.16,0,0,1,1.1,1.933,12.016,12.016,0,0,1,.352,3.208v20.171q0,9.1,3.757,13.447t10.789,4.351a31.355,31.355,0,0,0,4.108-.264,14.494,14.494,0,0,0,3.8-1.032,12.16,12.16,0,0,0,3.383-2.2,15.655,15.655,0,0,0,2.945-3.757h0.439L696.537,312h17.929Zm62.876,0v-4.79h-0.264a14.292,14.292,0,0,1-2.68-.22,3.892,3.892,0,0,1-1.89-.879,3.991,3.991,0,0,1-1.121-1.911,12.17,12.17,0,0,1-.373-3.362V279.964A26.768,26.768,0,0,0,770,272.12a14.073,14.073,0,0,0-2.922-5.384,11.567,11.567,0,0,0-4.681-3.12,18.123,18.123,0,0,0-6.24-1.011,35.355,35.355,0,0,0-4.021.22,11.833,11.833,0,0,0-3.625,1.011,11.441,11.441,0,0,0-3.23,2.285,16.694,16.694,0,0,0-2.879,4.043h-0.439l-1.187-6.416h-18.9v4.79h0.264a16.392,16.392,0,0,1,2.68.2,4.652,4.652,0,0,1,2.044.835,4.041,4.041,0,0,1,1.318,1.78,8.243,8.243,0,0,1,.461,3.032v26.631a8.365,8.365,0,0,1-.527,3.252,4.287,4.287,0,0,1-1.472,1.889,5.215,5.215,0,0,1-2.219.857,18.4,18.4,0,0,1-2.813.2h-0.176V312h27.642v-4.79h-0.264a16.789,16.789,0,0,1-2.7-.2,4.5,4.5,0,0,1-2.044-.835,4.1,4.1,0,0,1-1.3-1.78,8.233,8.233,0,0,1-.462-3.032V284.183a34.192,34.192,0,0,1,.4-5.3,16.332,16.332,0,0,1,1.3-4.438A8.1,8.1,0,0,1,746.4,271.4a5.97,5.97,0,0,1,3.736-1.143,6.533,6.533,0,0,1,3.362.813,6.1,6.1,0,0,1,2.241,2.351,11.732,11.732,0,0,1,1.23,3.8,31.972,31.972,0,0,1,.374,5.164V312h20Zm24.769-8.262q-1.385-1.889-1.385-5.976V269.9H812.24v-6.152H800.726V252.586h-7.47q-1.364,6.021-4.131,8.921a12.354,12.354,0,0,1-3.648,2.637,11.432,11.432,0,0,1-5.185,1.142V269.9h6.767v28.785a20.794,20.794,0,0,0,.923,6.657,11.081,11.081,0,0,0,2.637,4.4,9.757,9.757,0,0,0,4.175,2.417,19.414,19.414,0,0,0,5.493.725,40.928,40.928,0,0,0,4.394-.22q2.022-.221,3.626-0.549a26.114,26.114,0,0,0,2.812-.725,14.5,14.5,0,0,0,1.912-.747v-5.845q-1.407.353-3.01,0.593a22.454,22.454,0,0,1-3.362.242Q803.494,305.628,802.111,303.738Zm42.642-34.277a7.328,7.328,0,0,1,2.2,2.9,17.234,17.234,0,0,1,1.252,4.615,43.075,43.075,0,0,1,.4,6.152H833.042q0.219-7.208,2.439-10.942t6-3.736A5.281,5.281,0,0,1,844.753,269.461Zm5.45,42.627a19.576,19.576,0,0,0,5.515-2.109,9.264,9.264,0,0,0,3.252-3.055,6.954,6.954,0,0,0,1.054-3.669,4.61,4.61,0,0,0-2.417-4.395,13.542,13.542,0,0,1-2,2.879,12.812,12.812,0,0,1-2.813,2.329,13.84,13.84,0,0,1-3.581,1.538,16.021,16.021,0,0,1-4.307.549,11.713,11.713,0,0,1-4.988-1.01,9.391,9.391,0,0,1-3.691-3.121,16.173,16.173,0,0,1-2.373-5.361,34.863,34.863,0,0,1-.989-7.778h29.487v-4.614a27.822,27.822,0,0,0-1.45-9.405,17.993,17.993,0,0,0-4.175-6.767,17.471,17.471,0,0,0-6.635-4.109,28.675,28.675,0,0,0-18.26.219,17.849,17.849,0,0,0-7.009,4.812,21.42,21.42,0,0,0-4.35,8,37.375,37.375,0,0,0-1.5,11.118,33.808,33.808,0,0,0,1.5,10.481,20.5,20.5,0,0,0,4.438,7.756,19.139,19.139,0,0,0,7.317,4.834,28.162,28.162,0,0,0,10.085,1.67A34.417,34.417,0,0,0,850.2,312.088ZM924.355,312v-4.79h-0.264a14.292,14.292,0,0,1-2.68-.22,3.892,3.892,0,0,1-1.89-.879A3.991,3.991,0,0,1,918.4,304.2a12.17,12.17,0,0,1-.373-3.362v-17.71a26.883,26.883,0,0,1,.439-4.944,14.092,14.092,0,0,1,1.385-4.109,7.808,7.808,0,0,1,2.438-2.79,6.186,6.186,0,0,1,3.6-1.033,5.712,5.712,0,0,1,5.559,3.164q1.6,3.163,1.6,8.965V312h20v-4.79h-0.263a14.026,14.026,0,0,1-2.637-.22,3.9,3.9,0,0,1-1.89-.879,3.99,3.99,0,0,1-1.12-1.911,12.126,12.126,0,0,1-.374-3.362V279.964a26.768,26.768,0,0,0-1.011-7.844,14.073,14.073,0,0,0-2.922-5.384,11.564,11.564,0,0,0-4.68-3.12,18.131,18.131,0,0,0-6.24-1.011,37.7,37.7,0,0,0-4.109.22,13.193,13.193,0,0,0-3.824,1.011,12.068,12.068,0,0,0-3.427,2.285,15.366,15.366,0,0,0-2.967,4.043H916.8a10.724,10.724,0,0,0-5.141-5.779,18.611,18.611,0,0,0-8.482-1.78,35.355,35.355,0,0,0-4.021.22,11.833,11.833,0,0,0-3.625,1.011,11.441,11.441,0,0,0-3.23,2.285,16.694,16.694,0,0,0-2.879,4.043h-0.439l-1.187-6.416H868.9v4.526h0.264a16.392,16.392,0,0,1,2.68.2,4.664,4.664,0,0,1,2.044.835,4.041,4.041,0,0,1,1.318,1.78,8.24,8.24,0,0,1,.462,3.032v26.895a8.363,8.363,0,0,1-.528,3.252,4.287,4.287,0,0,1-1.472,1.889,5.215,5.215,0,0,1-2.219.857,18.4,18.4,0,0,1-2.813.2h-0.176V312H896.1v-4.79h-0.264a16.789,16.789,0,0,1-2.7-.2,4.5,4.5,0,0,1-2.044-.835,4.1,4.1,0,0,1-1.3-1.78,8.235,8.235,0,0,1-.461-3.032V284.183a34.194,34.194,0,0,1,.395-5.3,16.332,16.332,0,0,1,1.3-4.438,8.1,8.1,0,0,1,2.395-3.054,5.97,5.97,0,0,1,3.736-1.143,6.533,6.533,0,0,1,3.362.813,6.094,6.094,0,0,1,2.241,2.351,11.732,11.732,0,0,1,1.23,3.8,31.972,31.972,0,0,1,.374,5.164V312h20Z" transform="translate(-371 -239)"/>
</svg>
