<svg xmlns="http://www.w3.org/2000/svg" width="352" height="73" viewBox="0 0 352 73">
  <metadata><?xpacket begin="﻿" id="W5M0MpCehiHzreSzNTczkc9d"?>
<x:xmpmeta xmlns:x="adobe:ns:meta/" x:xmptk="Adobe XMP Core 5.6-c138 79.159824, 2016/09/14-01:09:01        ">
   <rdf:RDF xmlns:rdf="http://www.w3.org/1999/02/22-rdf-syntax-ns#">
      <rdf:Description rdf:about=""/>
   </rdf:RDF>
</x:xmpmeta>
                                                                                                    
                                                                                                    
                                                                                                    
                                                                                                    
                                                                                                    
                                                                                                    
                                                                                                    
                                                                                                    
                                                                                                    
                                                                                                    
                                                                                                    
                                                                                                    
                                                                                                    
                                                                                                    
                                                                                                    
                                                                                                    
                                                                                                    
                                                                                                    
                                                                                                    
                                                                                                    
                           
<?xpacket end="w"?></metadata>
<defs>
    <style>
      .cls-1 {
        fill: #036;
        fill-opacity: 0;
        stroke: #5d6c7b;
        stroke-linejoin: round;
        stroke-width: 2px;
        fill-rule: evenodd;
      }
    </style>
  </defs>
  <path id="Contact" class="cls-1" d="M450.773,265.112a13.431,13.431,0,0,1-5.6-4.834,22.312,22.312,0,0,1-3.12-8.108,59.092,59.092,0,0,1-.967-11.382,75.886,75.886,0,0,1,.791-11.58,28.3,28.3,0,0,1,2.571-8.547,12.878,12.878,0,0,1,4.724-5.273,13.561,13.561,0,0,1,7.207-1.8,8.662,8.662,0,0,1,7.756,4.043,12.083,12.083,0,0,1,1.648,4.021,20.918,20.918,0,0,1,.484,4.46,17.883,17.883,0,0,0,4.834-.593,10.835,10.835,0,0,0,3.537-1.648,7.054,7.054,0,0,0,2.154-2.483,6.744,6.744,0,0,0,.725-3.1,7.269,7.269,0,0,0-1.275-4.109,10.654,10.654,0,0,0-3.823-3.318,23.283,23.283,0,0,0-6.394-2.219,44.116,44.116,0,0,0-9.031-.813,34.924,34.924,0,0,0-13.469,2.417,26.355,26.355,0,0,0-9.712,6.768,28.8,28.8,0,0,0-5.867,10.415,42.912,42.912,0,0,0-1.977,13.359,44.7,44.7,0,0,0,1.933,13.535,28.412,28.412,0,0,0,5.8,10.459,25.676,25.676,0,0,0,9.712,6.724,36.171,36.171,0,0,0,13.667,2.373,34.963,34.963,0,0,0,9.668-1.143,19.909,19.909,0,0,0,6.284-2.9,10.68,10.68,0,0,0,3.384-3.845,9.13,9.13,0,0,0,1.011-3.977,6.275,6.275,0,0,0-.418-2.242,3.542,3.542,0,0,0-1.12-1.626,32.126,32.126,0,0,1-2.659,3.033,18.244,18.244,0,0,1-3.538,2.768,19.515,19.515,0,0,1-4.592,2,20.472,20.472,0,0,1-5.867.769A19.984,19.984,0,0,1,450.773,265.112Zm80.042-27.466A20.693,20.693,0,0,0,526.2,229.8a18.808,18.808,0,0,0-7.3-4.658,28.546,28.546,0,0,0-9.69-1.539q-11.6,0-17.556,6.2t-5.955,18.9a34.593,34.593,0,0,0,1.6,11.074,20.643,20.643,0,0,0,4.614,7.867,18.991,18.991,0,0,0,7.317,4.68,28.4,28.4,0,0,0,9.712,1.56q11.558,0,17.512-6.24t5.955-18.941A34.419,34.419,0,0,0,530.815,237.646Zm-30.652,2.593a21.6,21.6,0,0,1,1.582-6.043,8.4,8.4,0,0,1,2.9-3.625,8.591,8.591,0,0,1,8.789,0,8.554,8.554,0,0,1,2.923,3.625,21.549,21.549,0,0,1,1.626,6.043,62.209,62.209,0,0,1,.505,8.459,65.018,65.018,0,0,1-.483,8.438,21.731,21.731,0,0,1-1.6,6.108,8.913,8.913,0,0,1-2.9,3.714,7.412,7.412,0,0,1-4.372,1.252,7.516,7.516,0,0,1-4.395-1.252,8.839,8.839,0,0,1-2.922-3.714,22.14,22.14,0,0,1-1.626-6.108,62.167,62.167,0,0,1-.5-8.438A64.717,64.717,0,0,1,500.163,240.239ZM593.87,273v-4.79h-0.264a14.311,14.311,0,0,1-2.681-.22,3.893,3.893,0,0,1-1.889-.879,3.991,3.991,0,0,1-1.121-1.911,12.17,12.17,0,0,1-.373-3.362V240.964a26.8,26.8,0,0,0-1.011-7.844,14.073,14.073,0,0,0-2.922-5.384,11.567,11.567,0,0,0-4.681-3.12,18.123,18.123,0,0,0-6.24-1.011,35.355,35.355,0,0,0-4.021.22,11.833,11.833,0,0,0-3.625,1.011,11.427,11.427,0,0,0-3.23,2.285,16.694,16.694,0,0,0-2.879,4.043h-0.439l-1.187-6.416h-18.9v4.79h0.263a16.4,16.4,0,0,1,2.681.2,4.652,4.652,0,0,1,2.044.835,4.041,4.041,0,0,1,1.318,1.78,8.243,8.243,0,0,1,.461,3.032v26.631a8.365,8.365,0,0,1-.527,3.252,4.3,4.3,0,0,1-1.472,1.889,5.22,5.22,0,0,1-2.219.857,18.4,18.4,0,0,1-2.813.2h-0.176V273h27.642v-4.79h-0.264a16.789,16.789,0,0,1-2.7-.2,4.5,4.5,0,0,1-2.044-.835,4.092,4.092,0,0,1-1.3-1.78,8.233,8.233,0,0,1-.462-3.032V245.183a34.192,34.192,0,0,1,.4-5.3,16.3,16.3,0,0,1,1.3-4.438,8.1,8.1,0,0,1,2.395-3.054,5.968,5.968,0,0,1,3.736-1.143,6.526,6.526,0,0,1,3.361.813,6.1,6.1,0,0,1,2.242,2.351,11.732,11.732,0,0,1,1.23,3.8,31.972,31.972,0,0,1,.374,5.164V273h20Zm24.768-8.262q-1.385-1.889-1.384-5.976V230.9h11.514v-6.152H617.254V213.586h-7.471q-1.362,6.021-4.13,8.921a12.354,12.354,0,0,1-3.648,2.637,11.435,11.435,0,0,1-5.185,1.142V230.9h6.767v28.785a20.794,20.794,0,0,0,.923,6.657,11.081,11.081,0,0,0,2.637,4.4,9.754,9.754,0,0,0,4.174,2.417,19.426,19.426,0,0,0,5.494.725,40.928,40.928,0,0,0,4.394-.22q2.021-.221,3.626-0.549a26.114,26.114,0,0,0,2.812-.725,14.5,14.5,0,0,0,1.912-.747v-5.845q-1.407.353-3.01,0.593a22.454,22.454,0,0,1-3.362.242Q620.022,266.628,618.638,264.738Zm32.879-9.448a7.683,7.683,0,0,1,1.583-3.12,7.34,7.34,0,0,1,2.944-2,14.392,14.392,0,0,1,4.526-.857l4.043-.263v6.767a17.789,17.789,0,0,1-.593,4.768,10.81,10.81,0,0,1-1.714,3.626,7.889,7.889,0,0,1-2.681,2.307,7.43,7.43,0,0,1-3.493.813,4.247,4.247,0,0,1-3.867-1.934,10.942,10.942,0,0,1-1.231-5.8A17.12,17.12,0,0,1,651.517,255.29ZM662,229.846a4.588,4.588,0,0,1,1.692,2.109,11.076,11.076,0,0,1,.747,3.252q0.175,1.89.176,4.131V244.3l-7.383.263q-10.107.309-15.139,3.824t-5.032,10.854a17.391,17.391,0,0,0,1.1,6.482,12.749,12.749,0,0,0,3.01,4.57,12.065,12.065,0,0,0,4.483,2.7,17.071,17.071,0,0,0,5.559.879,20.416,20.416,0,0,0,4.416-.418,11.544,11.544,0,0,0,3.362-1.3,13.668,13.668,0,0,0,2.813-2.219q1.318-1.341,2.812-3.142H665.4l1.89,6.2h16.743v-4.79h-0.352a9.151,9.151,0,0,1-2.548-.308,3.351,3.351,0,0,1-1.67-1.032,4.564,4.564,0,0,1-.9-1.956,13.862,13.862,0,0,1-.286-3.076V238.9a19.019,19.019,0,0,0-1.186-7.141,11.066,11.066,0,0,0-3.538-4.724,15.142,15.142,0,0,0-5.889-2.615,37.36,37.36,0,0,0-8.283-.813,48.357,48.357,0,0,0-7.185.506,23.562,23.562,0,0,0-5.889,1.6,10.623,10.623,0,0,0-4,2.856,6.355,6.355,0,0,0-1.472,4.219,4.742,4.742,0,0,0,3.054,4.658q3.054,1.363,9.119,1.363a24.55,24.55,0,0,1,.285-3.89,9.608,9.608,0,0,1,.989-3.076A5.715,5.715,0,0,1,662,229.846Zm58.6,43.132a18.5,18.5,0,0,0,5.427-2.329,9.827,9.827,0,0,0,3.142-3.186,6.938,6.938,0,0,0,1.011-3.472,5.452,5.452,0,0,0-.528-2.351,4.058,4.058,0,0,0-1.626-1.78,12.74,12.74,0,0,1-2.043,2.879,13.1,13.1,0,0,1-2.922,2.329,14.8,14.8,0,0,1-3.714,1.538,16.751,16.751,0,0,1-4.372.549q-5.67,0-8.174-4.526t-2.5-13.667a64.264,64.264,0,0,1,.593-9.58,21.7,21.7,0,0,1,1.714-6.109,7.473,7.473,0,0,1,2.681-3.23,6.7,6.7,0,0,1,3.537-.944,4.25,4.25,0,0,1,2.835.944,6.521,6.521,0,0,1,1.78,2.527,14.8,14.8,0,0,1,.944,3.692,32.985,32.985,0,0,1,.286,4.438,21.138,21.138,0,0,0,5.779-.659A10.075,10.075,0,0,0,728,238.327a5.625,5.625,0,0,0,1.8-2.439,8.2,8.2,0,0,0,.5-2.834,6.549,6.549,0,0,0-1.164-3.714,9.874,9.874,0,0,0-3.406-3.01,19.819,19.819,0,0,0-5.581-2,36.452,36.452,0,0,0-7.69-.726,29.253,29.253,0,0,0-8.7,1.253,16.9,16.9,0,0,0-7.01,4.2,20.091,20.091,0,0,0-4.658,7.822,37.564,37.564,0,0,0-1.692,12.173,36.227,36.227,0,0,0,1.626,11.645,19.7,19.7,0,0,0,4.57,7.691,16.872,16.872,0,0,0,7.054,4.218,30.51,30.51,0,0,0,9.074,1.275A30.141,30.141,0,0,0,720.6,272.978Zm39.02-8.24q-1.385-1.889-1.384-5.976V230.9h11.513v-6.152H758.236V213.586h-7.471q-1.364,6.021-4.131,8.921a12.335,12.335,0,0,1-3.647,2.637,11.437,11.437,0,0,1-5.186,1.142V230.9h6.768v28.785a20.8,20.8,0,0,0,.922,6.657,11.1,11.1,0,0,0,2.637,4.4,9.763,9.763,0,0,0,4.175,2.417,19.419,19.419,0,0,0,5.493.725,40.947,40.947,0,0,0,4.395-.22q2.02-.221,3.625-0.549a26.137,26.137,0,0,0,2.813-.725,14.535,14.535,0,0,0,1.911-.747v-5.845q-1.407.353-3.01,0.593a22.445,22.445,0,0,1-3.362.242Q761,266.628,759.62,264.738Z" transform="translate(-422 -204)"/>
</svg>
