<svg xmlns="http://www.w3.org/2000/svg" width="423" height="96" viewBox="0 0 423 96">
  <metadata><?xpacket begin="﻿" id="W5M0MpCehiHzreSzNTczkc9d"?>
<x:xmpmeta xmlns:x="adobe:ns:meta/" x:xmptk="Adobe XMP Core 5.6-c138 79.159824, 2016/09/14-01:09:01        ">
   <rdf:RDF xmlns:rdf="http://www.w3.org/1999/02/22-rdf-syntax-ns#">
      <rdf:Description rdf:about=""/>
   </rdf:RDF>
</x:xmpmeta>
                                                                                                    
                                                                                                    
                                                                                                    
                                                                                                    
                                                                                                    
                                                                                                    
                                                                                                    
                                                                                                    
                                                                                                    
                                                                                                    
                                                                                                    
                                                                                                    
                                                                                                    
                                                                                                    
                                                                                                    
                                                                                                    
                                                                                                    
                                                                                                    
                                                                                                    
                                                                                                    
                           
<?xpacket end="w"?></metadata>
<defs>
    <style>
      .cls-1 {
        fill: #036;
        fill-opacity: 0;
        stroke: #fff;
        stroke-linejoin: round;
        stroke-width: 2px;
        fill-rule: evenodd;
      }
    </style>
  </defs>
  <path id="Hai_i_tu_" data-name="Hai și tu!" class="cls-1" d="M441.191,312v-4.79h-3.779a8.153,8.153,0,0,1-1.736-.176,3.222,3.222,0,0,1-1.45-.725,3.684,3.684,0,0,1-1.011-1.626,8.845,8.845,0,0,1-.373-2.834V258.387a10.831,10.831,0,0,1,.351-3.076,4.049,4.049,0,0,1,.989-1.758,3.121,3.121,0,0,1,1.472-.813,7.6,7.6,0,0,1,1.758-.2h3.779v-4.79H410.122v4.79h3.867a7.8,7.8,0,0,1,1.8.2,3.131,3.131,0,0,1,1.472.813,4.049,4.049,0,0,1,.989,1.758,10.826,10.826,0,0,1,.352,3.076v17.358H395.093V258.387a10.216,10.216,0,0,1,.373-3.076,4.351,4.351,0,0,1,.989-1.758,2.989,2.989,0,0,1,1.45-.813,7.792,7.792,0,0,1,1.8-.2h3.867v-4.79H372.505v4.79h3.779a7.6,7.6,0,0,1,1.758.2,3.32,3.32,0,0,1,1.472.769,3.859,3.859,0,0,1,1.011,1.648,9.052,9.052,0,0,1,.373,2.878v43.33a10.821,10.821,0,0,1-.351,3.076,4.053,4.053,0,0,1-.989,1.758,3.122,3.122,0,0,1-1.472.813,7.8,7.8,0,0,1-1.8.2h-3.779V312h31.069v-4.79h-3.867a7.792,7.792,0,0,1-1.8-.2,2.981,2.981,0,0,1-1.45-.813,4.344,4.344,0,0,1-.989-1.758,10.207,10.207,0,0,1-.373-3.076V281.238H418.6v20.127a10.816,10.816,0,0,1-.352,3.076,4.043,4.043,0,0,1-.989,1.758,3.122,3.122,0,0,1-1.472.813,7.8,7.8,0,0,1-1.8.2h-3.867V312h31.069Zm22.122-17.71a7.681,7.681,0,0,1,1.582-3.12,7.35,7.35,0,0,1,2.945-2,14.392,14.392,0,0,1,4.526-.857l4.043-.263v6.767a17.789,17.789,0,0,1-.593,4.768,10.81,10.81,0,0,1-1.714,3.626,7.889,7.889,0,0,1-2.681,2.307,7.433,7.433,0,0,1-3.493.813,4.25,4.25,0,0,1-3.868-1.934,10.953,10.953,0,0,1-1.23-5.8A17.12,17.12,0,0,1,463.313,294.29Zm10.481-25.444a4.6,4.6,0,0,1,1.692,2.109,11.076,11.076,0,0,1,.747,3.252q0.175,1.89.176,4.131V283.3l-7.383.263q-10.109.309-15.139,3.824t-5.032,10.854a17.391,17.391,0,0,0,1.1,6.482,12.749,12.749,0,0,0,3.01,4.57,12.065,12.065,0,0,0,4.483,2.7,17.067,17.067,0,0,0,5.559.879,20.422,20.422,0,0,0,4.416-.418,11.544,11.544,0,0,0,3.362-1.3,13.636,13.636,0,0,0,2.812-2.219q1.319-1.341,2.813-3.142H477.2l1.89,6.2h16.743v-4.79h-0.352a9.164,9.164,0,0,1-2.549-.308,3.351,3.351,0,0,1-1.67-1.032,4.575,4.575,0,0,1-.9-1.956,13.862,13.862,0,0,1-.286-3.076V277.9a19.018,19.018,0,0,0-1.187-7.141,11.064,11.064,0,0,0-3.537-4.724,15.142,15.142,0,0,0-5.889-2.615,37.363,37.363,0,0,0-8.284-.813,48.377,48.377,0,0,0-7.185.506,23.565,23.565,0,0,0-5.888,1.6,10.623,10.623,0,0,0-4,2.856,6.355,6.355,0,0,0-1.472,4.219,4.742,4.742,0,0,0,3.054,4.658q3.054,1.364,9.118,1.363a24.545,24.545,0,0,1,.286-3.89,9.608,9.608,0,0,1,.989-3.076A5.715,5.715,0,0,1,473.794,268.846Zm35.94-16.787a5.51,5.51,0,0,0,1.626,2.021,7.175,7.175,0,0,0,2.417,1.187,11.415,11.415,0,0,0,5.954,0,7.4,7.4,0,0,0,2.461-1.187,5.846,5.846,0,0,0,1.692-2.021,6.225,6.225,0,0,0,.637-2.9,6.327,6.327,0,0,0-.637-2.944,5.648,5.648,0,0,0-1.692-2,7.328,7.328,0,0,0-2.461-1.142,12.034,12.034,0,0,0-5.954,0,7.1,7.1,0,0,0-2.417,1.142,5.328,5.328,0,0,0-1.626,2,6.716,6.716,0,0,0-.593,2.944A6.606,6.606,0,0,0,509.734,252.059Zm-6.79,55.151V312h28.609v-4.79H530.5a12.4,12.4,0,0,1-2.109-.2,5.487,5.487,0,0,1-2.088-.813,4.864,4.864,0,0,1-1.582-1.758,6.317,6.317,0,0,1-.637-3.076V263.748H502.944v4.79H504a13.546,13.546,0,0,1,2.087.176,5.611,5.611,0,0,1,2.088.769,4.751,4.751,0,0,1,1.6,1.67,5.634,5.634,0,0,1,.637,2.878v27.334a6.329,6.329,0,0,1-.637,3.076A4.873,4.873,0,0,1,508.2,306.2a5.5,5.5,0,0,1-2.066.813,12.258,12.258,0,0,1-2.131.2h-1.055Zm87.117,4.592a17.593,17.593,0,0,0,6.153-3.1,13.041,13.041,0,0,0,3.8-4.966,16.417,16.417,0,0,0,1.3-6.679,12.139,12.139,0,0,0-1.01-5.076,12.711,12.711,0,0,0-2.835-3.955,19.581,19.581,0,0,0-4.35-3.076,40.592,40.592,0,0,0-5.515-2.395q-3.692-1.275-6.065-2.329a19.909,19.909,0,0,1-3.757-2.088,6.115,6.115,0,0,1-1.934-2.175,5.9,5.9,0,0,1-.549-2.593,4.821,4.821,0,0,1,.593-2.439,5.442,5.442,0,0,1,1.582-1.736,7.075,7.075,0,0,1,2.329-1.054,10.931,10.931,0,0,1,2.791-.352,7.139,7.139,0,0,1,5.91,2.483,10.834,10.834,0,0,1,2,6.965q4.922,0,7.053-1.582a5.388,5.388,0,0,0,2.131-4.614,5.928,5.928,0,0,0-.878-3.032,8.136,8.136,0,0,0-2.769-2.681,16.543,16.543,0,0,0-4.878-1.912,31.228,31.228,0,0,0-7.251-.725,33.068,33.068,0,0,0-7.91.879,18.171,18.171,0,0,0-6.108,2.659,12.218,12.218,0,0,0-3.934,4.46,13.537,13.537,0,0,0-1.384,6.285,13.784,13.784,0,0,0,.989,5.383,12.343,12.343,0,0,0,2.9,4.175,19.879,19.879,0,0,0,4.7,3.252,51.35,51.35,0,0,0,6.438,2.7q3.165,1.1,5.3,2.088A16.455,16.455,0,0,1,588.3,296.6a6.423,6.423,0,0,1,1.823,2.2,6.168,6.168,0,0,1,.55,2.659,5.448,5.448,0,0,1-.528,2.351,5.539,5.539,0,0,1-1.6,1.978,7.88,7.88,0,0,1-2.768,1.34,14.723,14.723,0,0,1-4.021.483,9.254,9.254,0,0,1-3.977-.834,8.631,8.631,0,0,1-3.054-2.4,11.217,11.217,0,0,1-1.978-3.8,16.842,16.842,0,0,1-.7-5.053,16.288,16.288,0,0,0-2.637.241,8.147,8.147,0,0,0-2.746.989,6.24,6.24,0,0,0-2.154,2.087,6.491,6.491,0,0,0-.857,3.538,9.041,9.041,0,0,0,.989,4.175,8.785,8.785,0,0,0,3.164,3.34,17.584,17.584,0,0,0,5.625,2.2,37.822,37.822,0,0,0,8.328.791A29.347,29.347,0,0,0,590.061,311.8Zm-16.171,20.1h5.4q1.142-1.45,2.373-3.208t2.417-3.581q1.186-1.824,2.175-3.582t1.6-3.164v-0.879H577.405q-0.264,1.494-.681,3.23t-0.9,3.516q-0.484,1.779-.989,3.449t-0.944,3.033v1.186Zm41.019-79.848a5.51,5.51,0,0,0,1.626,2.021,7.175,7.175,0,0,0,2.417,1.187,11.415,11.415,0,0,0,5.954,0,7.409,7.409,0,0,0,2.461-1.187,5.846,5.846,0,0,0,1.692-2.021,6.237,6.237,0,0,0,.637-2.9,6.339,6.339,0,0,0-.637-2.944,5.648,5.648,0,0,0-1.692-2,7.337,7.337,0,0,0-2.461-1.142,12.034,12.034,0,0,0-5.954,0,7.1,7.1,0,0,0-2.417,1.142,5.328,5.328,0,0,0-1.626,2,6.716,6.716,0,0,0-.594,2.944A6.606,6.606,0,0,0,614.909,252.059Zm-6.79,55.151V312h28.609v-4.79h-1.055a12.422,12.422,0,0,1-2.11-.2,5.489,5.489,0,0,1-2.087-.813,4.855,4.855,0,0,1-1.582-1.758,6.317,6.317,0,0,1-.637-3.076V263.748H608.119v4.79h1.055a13.546,13.546,0,0,1,2.087.176,5.611,5.611,0,0,1,2.088.769,4.751,4.751,0,0,1,1.6,1.67,5.634,5.634,0,0,1,.637,2.878v27.334a6.329,6.329,0,0,1-.637,3.076,4.873,4.873,0,0,1-1.582,1.758,5.5,5.5,0,0,1-2.066.813,12.267,12.267,0,0,1-2.131.2h-1.055Zm81.734-3.472q-1.385-1.889-1.384-5.976V269.9h11.513v-6.152H688.469V252.586H681q-1.362,6.021-4.131,8.921a12.335,12.335,0,0,1-3.647,2.637,11.437,11.437,0,0,1-5.186,1.142V269.9H674.8v28.785a20.766,20.766,0,0,0,.923,6.657,11.091,11.091,0,0,0,2.636,4.4,9.763,9.763,0,0,0,4.175,2.417,19.419,19.419,0,0,0,5.493.725,40.947,40.947,0,0,0,4.395-.22q2.02-.221,3.625-0.549a26.137,26.137,0,0,0,2.813-.725,14.535,14.535,0,0,0,1.911-.747v-5.845q-1.407.353-3.01,0.593a22.445,22.445,0,0,1-3.362.242Q691.238,305.628,689.853,303.738ZM762.82,312v-4.79h-0.747a17.424,17.424,0,0,1-2.417-.154,4.145,4.145,0,0,1-1.889-.725,3.8,3.8,0,0,1-1.253-1.692,8.358,8.358,0,0,1-.461-3.1V263.748H735.618v4.79h0.264a19.593,19.593,0,0,1,2.5.154,4.716,4.716,0,0,1,2.065.747,4.091,4.091,0,0,1,1.406,1.736,7.571,7.571,0,0,1,.528,3.12v17.27a31.8,31.8,0,0,1-.462,5.691,14.022,14.022,0,0,1-1.45,4.307,7.163,7.163,0,0,1-2.549,2.725,7.031,7.031,0,0,1-3.713.944,5.713,5.713,0,0,1-3.3-.9,6.307,6.307,0,0,1-2.109-2.549,13.586,13.586,0,0,1-1.121-3.977,37.527,37.527,0,0,1-.33-5.23V263.748h-20v4.79h0.176a12.8,12.8,0,0,1,2.791.264,4.022,4.022,0,0,1,1.911.967,4.16,4.16,0,0,1,1.1,1.933,12.021,12.021,0,0,1,.351,3.208v20.171q0,9.1,3.758,13.447t10.788,4.351a31.359,31.359,0,0,0,4.109-.264,14.476,14.476,0,0,0,3.8-1.032,12.165,12.165,0,0,0,3.384-2.2,15.655,15.655,0,0,0,2.945-3.757h0.439L744.891,312H762.82Zm15.8-20.522h5.054l5.273-43.726H773.306ZM774.4,308.924a5.688,5.688,0,0,0,1.561,2.2,6.084,6.084,0,0,0,2.351,1.209,10.956,10.956,0,0,0,2.9.373,10.553,10.553,0,0,0,2.834-.373,6.316,6.316,0,0,0,2.352-1.209,5.794,5.794,0,0,0,1.6-2.2,8.5,8.5,0,0,0,.593-3.384,8.792,8.792,0,0,0-.593-3.45,5.768,5.768,0,0,0-1.6-2.219,6.061,6.061,0,0,0-2.352-1.186,11.1,11.1,0,0,0-2.834-.352,11.528,11.528,0,0,0-2.9.352,5.849,5.849,0,0,0-2.351,1.186,5.666,5.666,0,0,0-1.561,2.219,9.081,9.081,0,0,0-.571,3.45A8.773,8.773,0,0,0,774.4,308.924Z" transform="translate(-369 -239)"/>
</svg>
