<svg xmlns="http://www.w3.org/2000/svg" width="345" height="96" viewBox="0 0 345 96">
  <metadata><?xpacket begin="﻿" id="W5M0MpCehiHzreSzNTczkc9d"?>
<x:xmpmeta xmlns:x="adobe:ns:meta/" x:xmptk="Adobe XMP Core 5.6-c138 79.159824, 2016/09/14-01:09:01        ">
   <rdf:RDF xmlns:rdf="http://www.w3.org/1999/02/22-rdf-syntax-ns#">
      <rdf:Description rdf:about=""/>
   </rdf:RDF>
</x:xmpmeta>
                                                                                                    
                                                                                                    
                                                                                                    
                                                                                                    
                                                                                                    
                                                                                                    
                                                                                                    
                                                                                                    
                                                                                                    
                                                                                                    
                                                                                                    
                                                                                                    
                                                                                                    
                                                                                                    
                                                                                                    
                                                                                                    
                                                                                                    
                                                                                                    
                                                                                                    
                                                                                                    
                           
<?xpacket end="w"?></metadata>
<defs>
    <style>
      .cls-1 {
        fill: #036;
        fill-opacity: 0;
        stroke: #5d6c7b;
        stroke-linejoin: round;
        stroke-width: 2px;
        fill-rule: evenodd;
      }
    </style>
  </defs>
  <path id="Sus_ine" data-name="Susține" class="cls-1" d="M462.9,272.429a23.66,23.66,0,0,0,7.712-4.043,17.583,17.583,0,0,0,4.922-6.219,18.417,18.417,0,0,0,1.714-7.976,18.078,18.078,0,0,0-.945-6,14.213,14.213,0,0,0-3.032-4.966,24.615,24.615,0,0,0-5.339-4.241,56.421,56.421,0,0,0-7.867-3.867,67.575,67.575,0,0,1-7.448-3.45,21.5,21.5,0,0,1-4.527-3.208,9,9,0,0,1-2.263-3.273,10.2,10.2,0,0,1-.615-3.56,8.637,8.637,0,0,1,.7-3.582,7.494,7.494,0,0,1,1.912-2.614,8,8,0,0,1,2.834-1.582,11.027,11.027,0,0,1,3.428-.528,7.714,7.714,0,0,1,4.416,1.231,9.991,9.991,0,0,1,2.967,3.1,13.633,13.633,0,0,1,1.648,4.043,18.068,18.068,0,0,1,.5,4.065,18.481,18.481,0,0,0,4.856-.571,10.563,10.563,0,0,0,3.472-1.583,6.592,6.592,0,0,0,2.065-2.373,6.487,6.487,0,0,0,.681-2.944,7.879,7.879,0,0,0-1.142-4.109,9.828,9.828,0,0,0-3.494-3.318,20.392,20.392,0,0,0-5.955-2.219,39.393,39.393,0,0,0-8.569-.813,29.084,29.084,0,0,0-8.789,1.275,21.113,21.113,0,0,0-6.987,3.647,17.055,17.055,0,0,0-4.615,5.713,16.477,16.477,0,0,0-1.67,7.471,20.439,20.439,0,0,0,.857,6.064,14.846,14.846,0,0,0,2.835,5.142,22.019,22.019,0,0,0,5.207,4.416,51.806,51.806,0,0,0,7.932,3.977q3.78,1.583,6.614,2.966a24.566,24.566,0,0,1,4.7,2.9,10.547,10.547,0,0,1,2.791,3.3,8.705,8.705,0,0,1,.923,4.065,9.835,9.835,0,0,1-.747,3.845,8.7,8.7,0,0,1-2.2,3.1,10.416,10.416,0,0,1-3.515,2.066,13.779,13.779,0,0,1-4.7.747,12.212,12.212,0,0,1-4.944-.989,10.428,10.428,0,0,1-3.889-2.945,14.214,14.214,0,0,1-2.549-4.877,22.6,22.6,0,0,1-.923-6.79,16.219,16.219,0,0,0-3.8.439,9.372,9.372,0,0,0-3.252,1.451,7.5,7.5,0,0,0-2.285,2.592,8.124,8.124,0,0,0-.857,3.912,10.376,10.376,0,0,0,4.5,8.481,20.038,20.038,0,0,0,6.482,2.944,37.8,37.8,0,0,0,10.107,1.143A32.976,32.976,0,0,0,462.9,272.429ZM538.235,273v-4.79h-0.747a17.424,17.424,0,0,1-2.417-.154,4.145,4.145,0,0,1-1.889-.725,3.8,3.8,0,0,1-1.253-1.692,8.379,8.379,0,0,1-.461-3.1V224.748H511.033v4.79H511.3a19.593,19.593,0,0,1,2.5.154,4.716,4.716,0,0,1,2.065.747,4.1,4.1,0,0,1,1.407,1.736,7.589,7.589,0,0,1,.527,3.12v17.27a31.8,31.8,0,0,1-.462,5.691,14.022,14.022,0,0,1-1.45,4.307,7.163,7.163,0,0,1-2.549,2.725,7.031,7.031,0,0,1-3.713.944,5.715,5.715,0,0,1-3.3-.9,6.307,6.307,0,0,1-2.109-2.549,13.586,13.586,0,0,1-1.121-3.977,37.537,37.537,0,0,1-.329-5.23V224.748h-20v4.79h0.176a12.8,12.8,0,0,1,2.791.264,4.018,4.018,0,0,1,1.911.967,4.16,4.16,0,0,1,1.1,1.933,12.016,12.016,0,0,1,.352,3.208v20.171q0,9.1,3.757,13.447t10.788,4.351a31.359,31.359,0,0,0,4.109-.264,14.494,14.494,0,0,0,3.8-1.032,12.16,12.16,0,0,0,3.383-2.2,15.655,15.655,0,0,0,2.945-3.757h0.439L520.306,273h17.929Zm33.484-.2a17.593,17.593,0,0,0,6.153-3.1,13.041,13.041,0,0,0,3.8-4.966,16.417,16.417,0,0,0,1.3-6.679,12.139,12.139,0,0,0-1.01-5.076,12.711,12.711,0,0,0-2.835-3.955,19.581,19.581,0,0,0-4.35-3.076,40.592,40.592,0,0,0-5.515-2.4q-3.692-1.275-6.065-2.329a19.909,19.909,0,0,1-3.757-2.088,6.115,6.115,0,0,1-1.934-2.175,5.9,5.9,0,0,1-.549-2.593,4.821,4.821,0,0,1,.593-2.439,5.442,5.442,0,0,1,1.582-1.736,7.075,7.075,0,0,1,2.329-1.054,10.931,10.931,0,0,1,2.791-.352,7.139,7.139,0,0,1,5.91,2.483,10.834,10.834,0,0,1,2,6.965q4.922,0,7.053-1.582a5.388,5.388,0,0,0,2.131-4.614,5.928,5.928,0,0,0-.878-3.032,8.136,8.136,0,0,0-2.769-2.681,16.543,16.543,0,0,0-4.878-1.912,31.228,31.228,0,0,0-7.251-.725,33.068,33.068,0,0,0-7.91.879,18.171,18.171,0,0,0-6.108,2.659,12.218,12.218,0,0,0-3.934,4.46,13.537,13.537,0,0,0-1.384,6.285,13.784,13.784,0,0,0,.989,5.383,12.343,12.343,0,0,0,2.9,4.175,19.879,19.879,0,0,0,4.7,3.252,51.35,51.35,0,0,0,6.438,2.7q3.165,1.1,5.3,2.088a16.455,16.455,0,0,1,3.406,2.021,6.423,6.423,0,0,1,1.823,2.2,6.168,6.168,0,0,1,.55,2.659,5.448,5.448,0,0,1-.528,2.351,5.539,5.539,0,0,1-1.6,1.978,7.88,7.88,0,0,1-2.768,1.34,14.723,14.723,0,0,1-4.021.483,9.257,9.257,0,0,1-3.977-.834,8.631,8.631,0,0,1-3.054-2.4,11.217,11.217,0,0,1-1.978-3.8,16.842,16.842,0,0,1-.7-5.053,16.288,16.288,0,0,0-2.637.241,8.147,8.147,0,0,0-2.746.989,6.24,6.24,0,0,0-2.154,2.087,6.491,6.491,0,0,0-.857,3.538,9.041,9.041,0,0,0,.989,4.175,8.785,8.785,0,0,0,3.164,3.34,17.584,17.584,0,0,0,5.625,2.2,37.822,37.822,0,0,0,8.328.791A29.347,29.347,0,0,0,571.719,272.8Zm40.184-8.064q-1.385-1.889-1.385-5.976V230.9h11.514v-6.152H610.518V213.586h-7.47q-1.363,6.021-4.131,8.921a12.354,12.354,0,0,1-3.648,2.637,11.432,11.432,0,0,1-5.185,1.142V230.9h6.767v28.785a20.794,20.794,0,0,0,.923,6.657,11.081,11.081,0,0,0,2.637,4.4,9.757,9.757,0,0,0,4.175,2.417,19.414,19.414,0,0,0,5.493.725,40.928,40.928,0,0,0,4.394-.22q2.022-.221,3.626-0.549a26.114,26.114,0,0,0,2.812-.725,14.5,14.5,0,0,0,1.912-.747v-5.845q-1.407.353-3.01,0.593a22.454,22.454,0,0,1-3.362.242Q613.287,266.628,611.9,264.738ZM599.84,292.907h5.4q1.141-1.45,2.373-3.208t2.417-3.581q1.187-1.824,2.175-3.582t1.6-3.164v-0.879H603.355q-0.264,1.494-.681,3.23t-0.9,3.516q-0.484,1.779-.989,3.449t-0.944,3.033v1.186ZM636.6,213.059a5.531,5.531,0,0,0,1.626,2.021,7.175,7.175,0,0,0,2.417,1.187,11.418,11.418,0,0,0,5.955,0,7.409,7.409,0,0,0,2.461-1.187,5.846,5.846,0,0,0,1.692-2.021,6.237,6.237,0,0,0,.637-2.9,6.339,6.339,0,0,0-.637-2.944,5.648,5.648,0,0,0-1.692-2,7.337,7.337,0,0,0-2.461-1.142,12.038,12.038,0,0,0-5.955,0,7.1,7.1,0,0,0-2.417,1.142,5.348,5.348,0,0,0-1.626,2,6.73,6.73,0,0,0-.593,2.944A6.62,6.62,0,0,0,636.6,213.059Zm-6.789,55.151V273h28.608v-4.79h-1.054a12.422,12.422,0,0,1-2.11-.2,5.482,5.482,0,0,1-2.087-.813,4.847,4.847,0,0,1-1.582-1.758,6.316,6.316,0,0,1-.638-3.076V224.748H629.808v4.79h1.054a13.548,13.548,0,0,1,2.088.176,5.6,5.6,0,0,1,2.087.769,4.751,4.751,0,0,1,1.6,1.67,5.623,5.623,0,0,1,.638,2.878v27.334a6.316,6.316,0,0,1-.638,3.076,4.864,4.864,0,0,1-1.582,1.758,5.485,5.485,0,0,1-2.065.813,12.269,12.269,0,0,1-2.132.2h-1.054ZM720.93,273v-4.79h-0.263a14.311,14.311,0,0,1-2.681-.22,3.9,3.9,0,0,1-1.89-.879,3.99,3.99,0,0,1-1.12-1.911,12.164,12.164,0,0,1-.374-3.362V240.964a26.8,26.8,0,0,0-1.01-7.844,14.075,14.075,0,0,0-2.923-5.384,11.557,11.557,0,0,0-4.68-3.12,18.127,18.127,0,0,0-6.24-1.011,35.342,35.342,0,0,0-4.021.22,11.839,11.839,0,0,0-3.626,1.011,11.455,11.455,0,0,0-3.23,2.285,16.72,16.72,0,0,0-2.878,4.043h-0.439l-1.187-6.416h-18.9v4.79h0.264a16.4,16.4,0,0,1,2.681.2,4.643,4.643,0,0,1,2.043.835,4.036,4.036,0,0,1,1.319,1.78,8.264,8.264,0,0,1,.461,3.032v26.631a8.383,8.383,0,0,1-.527,3.252,4.3,4.3,0,0,1-1.472,1.889,5.219,5.219,0,0,1-2.22.857,18.391,18.391,0,0,1-2.812.2h-0.176V273h27.642v-4.79H692.41a16.81,16.81,0,0,1-2.7-.2,4.5,4.5,0,0,1-2.043-.835,4.1,4.1,0,0,1-1.3-1.78,8.256,8.256,0,0,1-.461-3.032V245.183a34.192,34.192,0,0,1,.4-5.3,16.261,16.261,0,0,1,1.3-4.438,8.1,8.1,0,0,1,2.4-3.054,5.967,5.967,0,0,1,3.735-1.143,6.53,6.53,0,0,1,3.362.813,6.087,6.087,0,0,1,2.241,2.351,11.707,11.707,0,0,1,1.231,3.8,32.1,32.1,0,0,1,.373,5.164V273h20Zm31.341-42.539a7.328,7.328,0,0,1,2.2,2.9,17.234,17.234,0,0,1,1.252,4.615,43.085,43.085,0,0,1,.395,6.152H740.56q0.219-7.207,2.439-10.942t6-3.736A5.281,5.281,0,0,1,752.271,230.461Zm5.449,42.627a19.571,19.571,0,0,0,5.516-2.109,9.272,9.272,0,0,0,3.252-3.055,6.954,6.954,0,0,0,1.054-3.669,4.61,4.61,0,0,0-2.417-4.395,13.542,13.542,0,0,1-2,2.879,12.812,12.812,0,0,1-2.813,2.329,13.855,13.855,0,0,1-3.581,1.538,16.021,16.021,0,0,1-4.307.549,11.709,11.709,0,0,1-4.988-1.01,9.391,9.391,0,0,1-3.691-3.121,16.173,16.173,0,0,1-2.373-5.361,34.863,34.863,0,0,1-.989-7.778h29.487v-4.614a27.822,27.822,0,0,0-1.45-9.4,17.993,17.993,0,0,0-4.175-6.767,17.478,17.478,0,0,0-6.635-4.109,28.675,28.675,0,0,0-18.26.219,17.849,17.849,0,0,0-7.009,4.812,21.435,21.435,0,0,0-4.351,8,37.409,37.409,0,0,0-1.494,11.118,33.839,33.839,0,0,0,1.494,10.481,20.517,20.517,0,0,0,4.439,7.756,19.139,19.139,0,0,0,7.317,4.834,28.158,28.158,0,0,0,10.085,1.67A34.4,34.4,0,0,0,757.72,273.088Z" transform="translate(-428 -200)"/>
</svg>
