<svg xmlns="http://www.w3.org/2000/svg" width="463" height="112" viewBox="0 0 463 112">
  <metadata><?xpacket begin="﻿" id="W5M0MpCehiHzreSzNTczkc9d"?>
<x:xmpmeta xmlns:x="adobe:ns:meta/" x:xmptk="Adobe XMP Core 5.6-c138 79.159824, 2016/09/14-01:09:01        ">
   <rdf:RDF xmlns:rdf="http://www.w3.org/1999/02/22-rdf-syntax-ns#">
      <rdf:Description rdf:about=""/>
   </rdf:RDF>
</x:xmpmeta>
                                                                                                    
                                                                                                    
                                                                                                    
                                                                                                    
                                                                                                    
                                                                                                    
                                                                                                    
                                                                                                    
                                                                                                    
                                                                                                    
                                                                                                    
                                                                                                    
                                                                                                    
                                                                                                    
                                                                                                    
                                                                                                    
                                                                                                    
                                                                                                    
                                                                                                    
                                                                                                    
                           
<?xpacket end="w"?></metadata>
<defs>
    <style>
      .cls-1 {
        fill: #036;
        fill-opacity: 0;
        stroke: #fff;
        stroke-linejoin: round;
        stroke-width: 2px;
        fill-rule: evenodd;
      }
    </style>
  </defs>
  <path id="Împreună" class="cls-1" d="M403.574,312v-4.79H399.8a8.081,8.081,0,0,1-1.824-.2,2.987,2.987,0,0,1-1.472-.813,4.159,4.159,0,0,1-.967-1.758,10.785,10.785,0,0,1-.351-3.076V258.387a10.794,10.794,0,0,1,.351-3.076,4.165,4.165,0,0,1,.967-1.758,3,3,0,0,1,1.472-.813,8.081,8.081,0,0,1,1.824-.2h3.779v-4.79H372.505v4.79h3.779a8.008,8.008,0,0,1,1.846.2,3,3,0,0,1,1.45.813,4.187,4.187,0,0,1,.967,1.758,10.831,10.831,0,0,1,.351,3.076v42.978a10.821,10.821,0,0,1-.351,3.076,4.181,4.181,0,0,1-.967,1.758,2.99,2.99,0,0,1-1.45.813,8.008,8.008,0,0,1-1.846.2h-3.779V312h31.069Zm-31.465-69.39h6.241l2.175-1.757q1.253-1.011,2.593-2.11t2.636-2.2q1.3-1.1,2.308-2.022,1.01,0.924,2.307,2.022t2.658,2.2q1.362,1.1,2.637,2.11t2.2,1.757h6.2v-1.186q-1.056-1.275-2.461-2.945t-2.813-3.449q-1.407-1.781-2.659-3.56a22.237,22.237,0,0,1-1.955-3.274H382.041a22.251,22.251,0,0,1-1.956,3.274q-1.252,1.781-2.658,3.56t-2.835,3.449q-1.428,1.671-2.483,2.945v1.186ZM466.929,312v-4.79h-0.263a14.3,14.3,0,0,1-2.681-.22,3.9,3.9,0,0,1-1.89-.879,3.99,3.99,0,0,1-1.12-1.911,12.126,12.126,0,0,1-.374-3.362v-17.71a26.794,26.794,0,0,1,.44-4.944,14.092,14.092,0,0,1,1.384-4.109,7.82,7.82,0,0,1,2.439-2.79,6.183,6.183,0,0,1,3.6-1.033,5.711,5.711,0,0,1,5.559,3.164q1.6,3.163,1.6,8.965V312h20v-4.79h-0.264a14.041,14.041,0,0,1-2.637-.22,3.889,3.889,0,0,1-1.889-.879,3.991,3.991,0,0,1-1.121-1.911,12.164,12.164,0,0,1-.374-3.362V279.964a26.8,26.8,0,0,0-1.01-7.844,14.075,14.075,0,0,0-2.923-5.384,11.557,11.557,0,0,0-4.68-3.12,18.127,18.127,0,0,0-6.24-1.011,37.727,37.727,0,0,0-4.109.22,13.186,13.186,0,0,0-3.823,1.011,12.073,12.073,0,0,0-3.428,2.285,15.342,15.342,0,0,0-2.966,4.043h-0.791a10.726,10.726,0,0,0-5.142-5.779,18.606,18.606,0,0,0-8.481-1.78,35.329,35.329,0,0,0-4.021.22,11.839,11.839,0,0,0-3.626,1.011,11.455,11.455,0,0,0-3.23,2.285,16.693,16.693,0,0,0-2.878,4.043h-0.44l-1.186-6.416h-18.9v4.526h0.264a16.4,16.4,0,0,1,2.681.2,4.655,4.655,0,0,1,2.043.835,4.034,4.034,0,0,1,1.318,1.78,8.24,8.24,0,0,1,.462,3.032v26.895a8.383,8.383,0,0,1-.527,3.252,4.3,4.3,0,0,1-1.473,1.889,5.21,5.21,0,0,1-2.219.857,18.391,18.391,0,0,1-2.812.2h-0.176V312h27.641v-4.79h-0.263a16.8,16.8,0,0,1-2.7-.2,4.5,4.5,0,0,1-2.043-.835,4.1,4.1,0,0,1-1.3-1.78,8.256,8.256,0,0,1-.461-3.032V284.183a34.318,34.318,0,0,1,.4-5.3,16.3,16.3,0,0,1,1.3-4.438,8.094,8.094,0,0,1,2.4-3.054,5.965,5.965,0,0,1,3.735-1.143,6.53,6.53,0,0,1,3.362.813,6.087,6.087,0,0,1,2.241,2.351,11.755,11.755,0,0,1,1.231,3.8,32.1,32.1,0,0,1,.373,5.164V312h19.995Zm31.294,16.831v4.79h29.488v-4.79h-1.978a12.033,12.033,0,0,1-2.087-.2,5.506,5.506,0,0,1-2.066-.813A4.868,4.868,0,0,1,520,326.063a6.329,6.329,0,0,1-.637-3.077v-6.2q0-1.407-.11-3.3t-0.242-3.559q-0.175-1.978-.351-4.043h0.615a14.835,14.835,0,0,0,5.142,5.251,15.872,15.872,0,0,0,8.349,1.956,19.178,19.178,0,0,0,7.757-1.473,14.058,14.058,0,0,0,5.669-4.548,21.661,21.661,0,0,0,3.493-7.8,53.526,53.526,0,0,0-.022-22.522,21.939,21.939,0,0,0-3.537-7.844,14.035,14.035,0,0,0-5.779-4.571,20.065,20.065,0,0,0-7.932-1.472,18.014,18.014,0,0,0-4.7.571,14.147,14.147,0,0,0-3.8,1.626,13.723,13.723,0,0,0-2.988,2.505,17.284,17.284,0,0,0-2.263,3.208h-0.4l-1.626-7.031H499.014v4.79h0.615a12.474,12.474,0,0,1,2.395.22,4.048,4.048,0,0,1,3.208,2.768,9.612,9.612,0,0,1,.462,3.3v48.164a6.341,6.341,0,0,1-.637,3.077,4.886,4.886,0,0,1-1.582,1.757,5.512,5.512,0,0,1-2.066.813,12.258,12.258,0,0,1-2.131.2h-1.055ZM524.107,305.3a7.738,7.738,0,0,1-2.812-3.405,19.7,19.7,0,0,1-1.5-5.735,65.1,65.1,0,0,1-.439-8.108,63.031,63.031,0,0,1,.439-7.888,20.583,20.583,0,0,1,1.5-5.8,8.169,8.169,0,0,1,2.856-3.56,7.875,7.875,0,0,1,4.482-1.208q4.438,0,6.394,4.79t1.956,13.755q0,9.185-1.956,13.733t-6.482,4.548A8.11,8.11,0,0,1,524.107,305.3Zm62.7,1.912h-2.9a14.812,14.812,0,0,1-2.483-.2,4.607,4.607,0,0,1-2-.813,4.056,4.056,0,0,1-1.318-1.824,8.706,8.706,0,0,1-.484-3.186V285.633q0-1.054.088-2.5a26.409,26.409,0,0,1,.374-3.054,24.583,24.583,0,0,1,.791-3.186,12.254,12.254,0,0,1,1.3-2.835,6.956,6.956,0,0,1,1.934-2.043,4.66,4.66,0,0,1,2.724-.791,4.294,4.294,0,0,1,2.132.483,3.509,3.509,0,0,1,1.362,1.406,6.862,6.862,0,0,1,.7,2.33,23.569,23.569,0,0,1,.2,3.251q5.448,0,8.437-2.285a7.612,7.612,0,0,0,2.989-6.416,6.353,6.353,0,0,0-2.5-5.427q-2.505-1.868-7.823-1.868a19.658,19.658,0,0,0-4.768.506,10.7,10.7,0,0,0-3.471,1.516,9.855,9.855,0,0,0-2.527,2.527,20.5,20.5,0,0,0-1.934,3.537h-0.439l-1.8-7.031H557.186v4.79h0.263a16.4,16.4,0,0,1,2.681.2,4.5,4.5,0,0,1,2.043.857,4.152,4.152,0,0,1,1.319,1.867,9.129,9.129,0,0,1,.461,3.186v26.1a9.383,9.383,0,0,1-.5,3.384,4.342,4.342,0,0,1-1.428,1.955,5.086,5.086,0,0,1-2.2.9,16.553,16.553,0,0,1-2.812.22h-0.264V312H586.8v-4.79Zm45.765-37.749a7.327,7.327,0,0,1,2.2,2.9,17.2,17.2,0,0,1,1.252,4.615,43.075,43.075,0,0,1,.4,6.152H620.858q0.219-7.208,2.439-10.942t6-3.736A5.283,5.283,0,0,1,632.57,269.461Zm5.449,42.627a19.564,19.564,0,0,0,5.515-2.109,9.255,9.255,0,0,0,3.252-3.055,6.955,6.955,0,0,0,1.055-3.669,4.611,4.611,0,0,0-2.417-4.395,13.583,13.583,0,0,1-2,2.879,12.806,12.806,0,0,1-2.812,2.329,13.862,13.862,0,0,1-3.582,1.538,16.016,16.016,0,0,1-4.307.549,11.7,11.7,0,0,1-4.987-1.01,9.386,9.386,0,0,1-3.692-3.121,16.173,16.173,0,0,1-2.373-5.361,34.863,34.863,0,0,1-.989-7.778H650.17v-4.614a27.821,27.821,0,0,0-1.451-9.405,17.991,17.991,0,0,0-4.174-6.767,17.482,17.482,0,0,0-6.636-4.109,28.672,28.672,0,0,0-18.259.219,17.845,17.845,0,0,0-7.01,4.812,21.434,21.434,0,0,0-4.35,8,37.377,37.377,0,0,0-1.494,11.118,33.809,33.809,0,0,0,1.494,10.481,20.5,20.5,0,0,0,4.438,7.756,19.154,19.154,0,0,0,7.317,4.834,28.164,28.164,0,0,0,10.086,1.67A34.413,34.413,0,0,0,638.019,312.088Zm73.2-.088v-4.79h-0.747a17.424,17.424,0,0,1-2.417-.154,4.149,4.149,0,0,1-1.89-.725,3.8,3.8,0,0,1-1.252-1.692,8.355,8.355,0,0,1-.462-3.1V263.748H684.013v4.79h0.264a19.588,19.588,0,0,1,2.5.154,4.725,4.725,0,0,1,2.066.747,4.091,4.091,0,0,1,1.406,1.736,7.573,7.573,0,0,1,.527,3.12v17.27a31.807,31.807,0,0,1-.461,5.691,14.049,14.049,0,0,1-1.45,4.307,7.163,7.163,0,0,1-2.549,2.725,7.031,7.031,0,0,1-3.713.944,5.713,5.713,0,0,1-3.3-.9,6.317,6.317,0,0,1-2.11-2.549,13.587,13.587,0,0,1-1.12-3.977,37.527,37.527,0,0,1-.33-5.23V263.748h-20v4.79h0.176a12.786,12.786,0,0,1,2.79.264,4.026,4.026,0,0,1,1.912.967,4.16,4.16,0,0,1,1.1,1.933,12.021,12.021,0,0,1,.351,3.208v20.171q0,9.1,3.757,13.447t10.789,4.351a31.381,31.381,0,0,0,4.109-.264,14.476,14.476,0,0,0,3.8-1.032,12.179,12.179,0,0,0,3.384-2.2,15.628,15.628,0,0,0,2.944-3.757h0.44L693.285,312h17.93Zm62.875,0v-4.79h-0.263a14.311,14.311,0,0,1-2.681-.22,3.9,3.9,0,0,1-1.89-.879,3.99,3.99,0,0,1-1.12-1.911,12.164,12.164,0,0,1-.374-3.362V279.964a26.8,26.8,0,0,0-1.01-7.844,14.075,14.075,0,0,0-2.923-5.384,11.557,11.557,0,0,0-4.68-3.12,18.127,18.127,0,0,0-6.24-1.011,35.342,35.342,0,0,0-4.021.22,11.839,11.839,0,0,0-3.626,1.011,11.455,11.455,0,0,0-3.23,2.285,16.72,16.72,0,0,0-2.878,4.043h-0.44l-1.186-6.416h-18.9v4.79H718.9a16.4,16.4,0,0,1,2.681.2,4.643,4.643,0,0,1,2.043.835,4.036,4.036,0,0,1,1.319,1.78,8.264,8.264,0,0,1,.461,3.032v26.631a8.383,8.383,0,0,1-.527,3.252,4.3,4.3,0,0,1-1.472,1.889,5.219,5.219,0,0,1-2.22.857,18.391,18.391,0,0,1-2.812.2h-0.176V312h27.642v-4.79H745.57a16.81,16.81,0,0,1-2.7-.2,4.5,4.5,0,0,1-2.043-.835,4.1,4.1,0,0,1-1.3-1.78,8.256,8.256,0,0,1-.461-3.032V284.183a34.192,34.192,0,0,1,.4-5.3,16.261,16.261,0,0,1,1.3-4.438,8.1,8.1,0,0,1,2.395-3.054,5.967,5.967,0,0,1,3.735-1.143,6.53,6.53,0,0,1,3.362.813,6.087,6.087,0,0,1,2.241,2.351,11.707,11.707,0,0,1,1.231,3.8,32.1,32.1,0,0,1,.373,5.164V312h20Zm22.046-17.71a7.669,7.669,0,0,1,1.582-3.12,7.347,7.347,0,0,1,2.944-2,14.392,14.392,0,0,1,4.526-.857l4.043-.263v6.767a17.789,17.789,0,0,1-.593,4.768,10.81,10.81,0,0,1-1.714,3.626,7.889,7.889,0,0,1-2.681,2.307,7.43,7.43,0,0,1-3.493.813,4.247,4.247,0,0,1-3.867-1.934,10.942,10.942,0,0,1-1.231-5.8A17.071,17.071,0,0,1,796.136,294.29Zm10.48-25.444a4.588,4.588,0,0,1,1.692,2.109,11.076,11.076,0,0,1,.747,3.252q0.176,1.89.176,4.131V283.3l-7.383.263q-10.107.309-15.139,3.824t-5.031,10.854a17.392,17.392,0,0,0,1.1,6.482,12.749,12.749,0,0,0,3.01,4.57,12.065,12.065,0,0,0,4.483,2.7,17.071,17.071,0,0,0,5.559.879,20.416,20.416,0,0,0,4.416-.418,11.544,11.544,0,0,0,3.362-1.3,13.668,13.668,0,0,0,2.813-2.219q1.318-1.341,2.812-3.142h0.791l1.89,6.2h16.743v-4.79H828.3a9.151,9.151,0,0,1-2.548-.308,3.351,3.351,0,0,1-1.67-1.032,4.564,4.564,0,0,1-.9-1.956,13.862,13.862,0,0,1-.286-3.076V277.9a19.019,19.019,0,0,0-1.186-7.141,11.066,11.066,0,0,0-3.538-4.724,15.142,15.142,0,0,0-5.889-2.615,37.36,37.36,0,0,0-8.283-.813,48.357,48.357,0,0,0-7.185.506,23.562,23.562,0,0,0-5.889,1.6,10.623,10.623,0,0,0-4,2.856,6.355,6.355,0,0,0-1.472,4.219,4.742,4.742,0,0,0,3.054,4.658q3.054,1.364,9.119,1.363a24.55,24.55,0,0,1,.285-3.89,9.608,9.608,0,0,1,.989-3.076A5.715,5.715,0,0,1,806.616,268.846Zm2.945-12.635a13.726,13.726,0,0,0,4.46-3.273,13.994,13.994,0,0,0,2.725-4.549,16.382,16.382,0,0,0,1.011-5.076H811.78a7.228,7.228,0,0,1-2.944,4.725,11.365,11.365,0,0,1-11.031,0,7.225,7.225,0,0,1-2.944-4.725h-5.933a16.382,16.382,0,0,0,1.011,5.076,13.977,13.977,0,0,0,2.725,4.549,13.715,13.715,0,0,0,4.46,3.273A16.057,16.057,0,0,0,809.561,256.211Z" transform="translate(-369 -225)"/>
</svg>
